<svg width="56" height="56" viewBox="0 0 56 56" fill="none" xmlns="http://www.w3.org/2000/svg">
<path fill-rule="evenodd" clip-rule="evenodd" d="M11.2221 49.9312C15.8566 53.4601 21.6419 55.5552 27.9166 55.5552C43.1502 55.5552 55.4995 43.2059 55.4995 27.9723C55.4995 21.1037 52.9889 14.8215 48.8354 9.99321C48.9385 11.8449 48.8611 13.7295 48.6123 15.6161C47.5787 23.4552 43.5885 31.5211 37.0252 38.0845C30.4618 44.6478 22.3959 48.638 14.5568 49.6716C13.4424 49.8186 12.3287 49.9058 11.2221 49.9312ZM30.4038 0.5C34.0284 0.823944 37.4512 1.84902 40.5355 3.43864C42.0739 6.68631 42.6007 10.5685 42.0492 14.7507C41.2221 21.0238 37.9678 27.7799 32.3442 33.4035C26.7206 39.0271 19.9644 42.2814 13.6914 43.1085C10.3453 43.5498 7.19128 43.3008 4.40063 42.3957C2.42118 39.1753 1.08472 35.5172 0.570101 31.6003C2.36217 31.7628 4.20565 31.6654 6.03098 31.3422C11.4669 30.3799 17.0707 27.3943 21.7033 22.7617C26.336 18.129 29.3215 12.5253 30.2839 7.08932C30.6753 4.87831 30.7355 2.64066 30.4038 0.5ZM0.499512 24.93C1.86121 12.5191 11.4565 2.58535 23.7052 0.708834C24.0708 2.22612 24.1108 3.98423 23.7654 5.93529C23.0671 9.87954 20.8136 14.2895 17.0223 18.0807C13.2311 21.8719 8.82119 24.1254 4.87695 24.8237C3.27974 25.1065 1.81184 25.1309 0.499512 24.93Z" fill="#0A98FF"/>
</svg>
