<svg width="637" height="113" viewBox="0 0 637 113" fill="none" xmlns="http://www.w3.org/2000/svg">
<path d="M170.096 91H159.152L184.4 21.304H195.824L221.168 91H210.032L204.08 74.104H176.048L170.096 91ZM188.72 38.68L179.216 65.08H200.912L191.312 38.68C191.12 37.848 190.864 37.016 190.544 36.184C190.288 35.352 190.128 34.648 190.064 34.072C189.936 34.648 189.744 35.352 189.488 36.184C189.296 37.016 189.04 37.848 188.72 38.68ZM256.681 43.576V52.888H252.553C248.265 52.888 244.873 54.104 242.377 56.536C239.945 58.904 238.729 62.36 238.729 66.904V91H228.648V43.96H238.153L239.017 53.56H238.057C238.697 50.424 240.201 47.896 242.569 45.976C244.937 43.992 248.009 43 251.785 43C252.553 43 253.321 43.032 254.089 43.096C254.921 43.16 255.785 43.32 256.681 43.576ZM261.909 43.864H290.229V52.312H261.909V43.864ZM289.941 82.168L291.189 90.52C288.629 91.544 285.845 92.056 282.837 92.056C280.021 92.056 277.589 91.544 275.541 90.52C273.493 89.432 271.925 87.8 270.837 85.624C269.749 83.384 269.205 80.568 269.205 77.176V29.08H279.285V75.64C279.285 78.328 279.829 80.248 280.917 81.4C282.069 82.488 283.541 83.032 285.333 83.032C286.741 83.032 288.277 82.744 289.941 82.168ZM319.976 92.248C315.368 92.248 311.272 91.192 307.688 89.08C304.168 86.968 301.384 84.056 299.336 80.344C297.352 76.632 296.36 72.312 296.36 67.384C296.36 62.52 297.32 58.232 299.24 54.52C301.224 50.744 303.976 47.8 307.496 45.688C311.016 43.576 315.048 42.52 319.592 42.52C324.2 42.52 328.168 43.512 331.496 45.496C334.888 47.416 337.512 50.136 339.368 53.656C341.224 57.176 342.152 61.304 342.152 66.04V69.496L301.736 69.592L301.928 62.968H332.072C332.072 59.32 330.952 56.408 328.712 54.232C326.472 51.992 323.464 50.872 319.688 50.872C316.744 50.872 314.248 51.512 312.2 52.792C310.216 54.008 308.68 55.832 307.592 58.264C306.504 60.696 305.96 63.64 305.96 67.096C305.96 72.536 307.176 76.696 309.608 79.576C312.04 82.392 315.56 83.8 320.168 83.8C323.56 83.8 326.344 83.16 328.52 81.88C330.696 80.536 332.136 78.616 332.84 76.12H342.248C341.16 81.176 338.664 85.144 334.76 88.024C330.856 90.84 325.928 92.248 319.976 92.248ZM356.201 91H344.585L361.001 67.768L344.585 43.864H356.393L367.721 60.856L378.761 43.864H390.089L373.865 67.672L389.801 91H378.089L367.049 74.392L356.201 91ZM394.999 40.312C394.999 36.28 396.023 32.76 398.071 29.752C400.119 26.68 402.967 24.312 406.615 22.648C410.263 20.92 414.487 20.056 419.286 20.056C423.831 20.056 427.799 20.856 431.191 22.456C434.583 24.056 437.239 26.36 439.159 29.368C441.079 32.312 442.135 35.832 442.327 39.928H431.671C431.479 36.6 430.263 34.04 428.023 32.248C425.847 30.392 422.903 29.464 419.191 29.464C415.095 29.464 411.799 30.424 409.303 32.344C406.807 34.2 405.559 36.76 405.559 40.024C405.559 42.712 406.295 44.856 407.767 46.456C409.303 48.056 411.639 49.24 414.775 50.008L426.103 52.6C431.863 53.88 436.183 56.056 439.062 59.128C442.007 62.2 443.479 66.264 443.479 71.32C443.479 75.544 442.423 79.224 440.311 82.36C438.263 85.496 435.351 87.928 431.575 89.656C427.863 91.384 423.511 92.248 418.519 92.248C413.719 92.248 409.495 91.448 405.847 89.848C402.199 88.184 399.351 85.88 397.303 82.936C395.319 79.928 394.231 76.408 394.039 72.376H404.695C404.759 75.576 406.039 78.104 408.535 79.96C411.031 81.816 414.359 82.744 418.519 82.744C422.935 82.744 426.423 81.784 428.983 79.864C431.607 77.944 432.919 75.384 432.919 72.184C432.919 69.56 432.183 67.448 430.711 65.848C429.303 64.248 427.031 63.096 423.895 62.392L412.567 59.896C406.807 58.616 402.423 56.344 399.415 53.08C396.471 49.752 394.999 45.496 394.999 40.312ZM463.639 91L448.183 43.864H458.743L465.847 66.616C466.423 68.408 466.935 70.264 467.383 72.184C467.895 74.104 468.343 76.12 468.727 78.232C469.047 76.76 469.367 75.384 469.687 74.104C470.007 72.824 470.359 71.576 470.743 70.36C471.127 69.144 471.511 67.896 471.895 66.616L479.287 43.864H489.559L496.759 66.616C496.951 67.192 497.175 67.96 497.431 68.92C497.687 69.88 497.943 70.904 498.199 71.992C498.519 73.08 498.807 74.2 499.063 75.352C499.383 76.44 499.607 77.4 499.735 78.232C500.055 76.952 500.375 75.672 500.695 74.392C501.015 73.048 501.367 71.736 501.751 70.456C502.135 69.112 502.487 67.832 502.807 66.616L510.103 43.864H520.663L504.535 91H494.935L487.447 67.672C486.615 65.048 485.943 62.744 485.431 60.76C484.919 58.776 484.567 57.144 484.375 55.864C484.119 57.016 483.735 58.488 483.223 60.28C482.775 62.072 482.039 64.6 481.015 67.864L473.527 91H463.639ZM562.698 43.864H571.722V91H562.41L561.642 82.936C560.106 85.688 557.898 87.928 555.018 89.656C552.138 91.384 548.778 92.248 544.938 92.248C540.33 92.248 536.362 91.16 533.034 88.984C529.77 86.744 527.274 83.736 525.546 79.96C523.818 76.184 522.954 71.864 522.954 67C522.954 62.136 523.85 57.88 525.642 54.232C527.498 50.52 530.09 47.64 533.418 45.592C536.81 43.544 540.714 42.52 545.13 42.52C548.714 42.52 552.042 43.32 555.114 44.92C558.186 46.456 560.49 48.792 562.026 51.928L562.698 43.864ZM561.45 67.48C561.45 64.344 560.874 61.592 559.722 59.224C558.57 56.856 556.938 55.032 554.826 53.752C552.714 52.408 550.186 51.736 547.242 51.736C544.362 51.736 541.834 52.408 539.658 53.752C537.546 55.096 535.914 56.952 534.762 59.32C533.674 61.688 533.13 64.408 533.13 67.48C533.13 70.552 533.674 73.272 534.762 75.64C535.914 77.944 537.546 79.768 539.658 81.112C541.77 82.456 544.266 83.128 547.146 83.128C550.09 83.128 552.618 82.488 554.73 81.208C556.906 79.864 558.57 78.008 559.722 75.64C560.874 73.272 561.45 70.552 561.45 67.48ZM584.43 112.408V43.864H593.646L594.414 51.832C595.886 48.76 598.094 46.456 601.038 44.92C604.046 43.32 607.374 42.52 611.022 42.52C615.566 42.52 619.47 43.544 622.734 45.592C625.998 47.64 628.526 50.52 630.318 54.232C632.174 57.88 633.102 62.136 633.102 67C633.102 71.864 632.238 76.184 630.51 79.96C628.782 83.736 626.286 86.744 623.022 88.984C619.758 91.16 615.79 92.248 611.118 92.248C607.406 92.248 604.078 91.512 601.134 90.04C598.254 88.568 596.046 86.488 594.51 83.8V112.408H584.43ZM594.606 67.48C594.606 70.488 595.182 73.176 596.334 75.544C597.486 77.912 599.118 79.768 601.23 81.112C603.406 82.456 605.934 83.128 608.814 83.128C611.822 83.128 614.35 82.456 616.398 81.112C618.51 79.768 620.11 77.912 621.198 75.544C622.35 73.176 622.926 70.488 622.926 67.48C622.926 64.408 622.35 61.688 621.198 59.32C620.11 56.952 618.51 55.096 616.398 53.752C614.35 52.408 611.822 51.736 608.814 51.736C605.934 51.736 603.406 52.408 601.23 53.752C599.118 55.032 597.486 56.856 596.334 59.224C595.182 61.592 594.606 64.344 594.606 67.48Z" fill="white"/>
<path fill-rule="evenodd" clip-rule="evenodd" d="M21.4447 98.8641C30.7136 105.921 42.2838 110.111 54.8327 110.111C85.2999 110.111 109.999 85.4128 109.999 54.9455C109.999 41.2088 104.978 28.6448 96.6712 18.9884C96.8775 22.6916 96.7226 26.4607 96.2251 30.2339C94.1577 45.9121 86.1775 62.0439 73.0507 75.1706C59.924 88.2973 43.7923 96.2776 28.1141 98.3449C25.8852 98.6388 23.6579 98.8131 21.4447 98.8641ZM59.8082 0.000976562C67.0573 0.648994 73.9027 2.69925 80.0712 5.87856C83.1482 12.374 84.2018 20.1384 83.0989 28.5031C81.4445 41.0491 74.936 54.5614 63.6888 65.8086C52.4416 77.0558 38.9293 83.5644 26.3832 85.2187C19.6908 86.1012 13.3825 85.6031 7.80108 83.7928C3.84199 77.3518 1.16896 70.0354 0.139697 62.2014C3.72417 62.5265 7.41147 62.3318 11.0625 61.6854C21.9343 59.7607 33.1418 53.7896 42.4072 44.5243C51.6725 35.2589 57.6436 24.0514 59.5683 13.1796C60.3512 8.75755 60.4715 4.28228 59.8082 0.000976562ZM-0.00146484 48.8607C2.72202 24.0387 21.913 4.17104 46.411 0.418402C47.142 3.45302 47.2221 6.9693 46.5312 10.8715C45.1347 18.76 40.6276 27.5799 33.0452 35.1623C25.4628 42.7447 16.6429 47.2518 8.75441 48.6483C5.55959 49.214 2.62345 49.2628 -0.00146484 48.8607Z" fill="#0A98FF"/>
</svg>
