<svg width="271" height="57" viewBox="0 0 271 57" fill="none" xmlns="http://www.w3.org/2000/svg">
<path d="M88.264 11.152V46H82.984V11.152H88.264ZM93.9456 34.192C93.9456 31.76 94.4736 29.616 95.5296 27.76C96.6176 25.872 98.0896 24.4 99.9456 23.344C101.834 22.288 103.978 21.76 106.378 21.76C108.778 21.76 110.906 22.288 112.762 23.344C114.618 24.4 116.074 25.872 117.13 27.76C118.218 29.616 118.762 31.76 118.762 34.192C118.762 36.624 118.218 38.768 117.13 40.624C116.074 42.48 114.618 43.936 112.762 44.992C110.906 46.048 108.778 46.576 106.378 46.576C103.978 46.576 101.834 46.048 99.9456 44.992C98.0896 43.936 96.6176 42.48 95.5296 40.624C94.4736 38.768 93.9456 36.624 93.9456 34.192ZM99.0336 34.144C99.0336 35.712 99.3376 37.088 99.9456 38.272C100.586 39.456 101.45 40.384 102.538 41.056C103.658 41.728 104.938 42.064 106.378 42.064C107.818 42.064 109.082 41.728 110.17 41.056C111.258 40.384 112.106 39.456 112.714 38.272C113.354 37.088 113.674 35.712 113.674 34.144C113.674 32.608 113.354 31.248 112.714 30.064C112.106 28.88 111.258 27.968 110.17 27.328C109.082 26.656 107.818 26.32 106.378 26.32C104.938 26.32 103.658 26.656 102.538 27.328C101.45 27.968 100.586 28.88 99.9456 30.064C99.3376 31.248 99.0336 32.608 99.0336 34.144ZM128.646 46H123.605V22.432H128.214L128.694 25.84C129.43 24.56 130.486 23.568 131.862 22.864C133.238 22.128 134.758 21.76 136.422 21.76C139.462 21.76 141.718 22.64 143.19 24.4C144.662 26.128 145.398 28.512 145.398 31.552V46H140.406V32.704C140.406 30.496 139.91 28.88 138.918 27.856C137.926 26.832 136.614 26.32 134.982 26.32C132.966 26.32 131.398 26.976 130.278 28.288C129.19 29.568 128.646 31.28 128.646 33.424V46ZM150.249 20.656C150.249 18.64 150.761 16.88 151.785 15.376C152.809 13.84 154.233 12.656 156.057 11.824C157.881 10.96 159.993 10.528 162.393 10.528C164.665 10.528 166.649 10.928 168.345 11.728C170.041 12.528 171.369 13.68 172.329 15.184C173.289 16.656 173.817 18.416 173.913 20.464H168.585C168.489 18.8 167.881 17.52 166.761 16.624C165.673 15.696 164.201 15.232 162.345 15.232C160.297 15.232 158.649 15.712 157.401 16.672C156.153 17.6 155.529 18.88 155.529 20.512C155.529 21.856 155.897 22.928 156.633 23.728C157.401 24.528 158.569 25.12 160.137 25.504L165.801 26.8C168.681 27.44 170.841 28.528 172.281 30.064C173.753 31.6 174.489 33.632 174.489 36.16C174.489 38.272 173.961 40.112 172.905 41.68C171.881 43.248 170.425 44.464 168.537 45.328C166.681 46.192 164.505 46.624 162.009 46.624C159.609 46.624 157.497 46.224 155.673 45.424C153.849 44.592 152.425 43.44 151.401 41.968C150.409 40.464 149.865 38.704 149.769 36.688H155.097C155.129 38.288 155.769 39.552 157.017 40.48C158.265 41.408 159.929 41.872 162.009 41.872C164.217 41.872 165.961 41.392 167.241 40.432C168.553 39.472 169.209 38.192 169.209 36.592C169.209 35.28 168.841 34.224 168.105 33.424C167.401 32.624 166.265 32.048 164.697 31.696L159.033 30.448C156.153 29.808 153.961 28.672 152.457 27.04C150.985 25.376 150.249 23.248 150.249 20.656ZM184.57 46L176.842 22.432H182.122L185.674 33.808C185.962 34.704 186.218 35.632 186.442 36.592C186.698 37.552 186.922 38.56 187.114 39.616C187.274 38.88 187.434 38.192 187.594 37.552C187.754 36.912 187.93 36.288 188.122 35.68C188.314 35.072 188.506 34.448 188.698 33.808L192.394 22.432H197.53L201.13 33.808C201.226 34.096 201.338 34.48 201.466 34.96C201.594 35.44 201.722 35.952 201.85 36.496C202.01 37.04 202.154 37.6 202.282 38.176C202.442 38.72 202.554 39.2 202.618 39.616C202.778 38.976 202.938 38.336 203.098 37.696C203.258 37.024 203.434 36.368 203.626 35.728C203.818 35.056 203.994 34.416 204.154 33.808L207.802 22.432H213.082L205.018 46H200.218L196.474 34.336C196.058 33.024 195.722 31.872 195.466 30.88C195.21 29.888 195.034 29.072 194.938 28.432C194.81 29.008 194.618 29.744 194.362 30.64C194.138 31.536 193.77 32.8 193.258 34.432L189.514 46H184.57ZM234.099 22.432H238.611V46H233.955L233.571 41.968C232.803 43.344 231.699 44.464 230.259 45.328C228.819 46.192 227.139 46.624 225.219 46.624C222.915 46.624 220.931 46.08 219.267 44.992C217.635 43.872 216.387 42.368 215.523 40.48C214.659 38.592 214.227 36.432 214.227 34C214.227 31.568 214.675 29.44 215.571 27.616C216.499 25.76 217.795 24.32 219.459 23.296C221.155 22.272 223.107 21.76 225.315 21.76C227.107 21.76 228.771 22.16 230.307 22.96C231.843 23.728 232.995 24.896 233.763 26.464L234.099 22.432ZM233.475 34.24C233.475 32.672 233.187 31.296 232.611 30.112C232.035 28.928 231.219 28.016 230.163 27.376C229.107 26.704 227.843 26.368 226.371 26.368C224.931 26.368 223.667 26.704 222.579 27.376C221.523 28.048 220.707 28.976 220.131 30.16C219.587 31.344 219.315 32.704 219.315 34.24C219.315 35.776 219.587 37.136 220.131 38.32C220.707 39.472 221.523 40.384 222.579 41.056C223.635 41.728 224.883 42.064 226.323 42.064C227.795 42.064 229.059 41.744 230.115 41.104C231.203 40.432 232.035 39.504 232.611 38.32C233.187 37.136 233.475 35.776 233.475 34.24ZM244.965 56.704V22.432H249.573L249.957 26.416C250.693 24.88 251.797 23.728 253.269 22.96C254.773 22.16 256.437 21.76 258.261 21.76C260.533 21.76 262.485 22.272 264.117 23.296C265.749 24.32 267.013 25.76 267.909 27.616C268.837 29.44 269.301 31.568 269.301 34C269.301 36.432 268.869 38.592 268.005 40.48C267.141 42.368 265.893 43.872 264.261 44.992C262.629 46.08 260.645 46.624 258.309 46.624C256.453 46.624 254.789 46.256 253.317 45.52C251.877 44.784 250.773 43.744 250.005 42.4V56.704H244.965ZM250.053 34.24C250.053 35.744 250.341 37.088 250.917 38.272C251.493 39.456 252.309 40.384 253.365 41.056C254.453 41.728 255.717 42.064 257.157 42.064C258.661 42.064 259.925 41.728 260.949 41.056C262.005 40.384 262.805 39.456 263.349 38.272C263.925 37.088 264.213 35.744 264.213 34.24C264.213 32.704 263.925 31.344 263.349 30.16C262.805 28.976 262.005 28.048 260.949 27.376C259.925 26.704 258.661 26.368 257.157 26.368C255.717 26.368 254.453 26.704 253.365 27.376C252.309 28.016 251.493 28.928 250.917 30.112C250.341 31.296 250.053 32.672 250.053 34.24Z" fill="white"/>
<path d="M47.6619 9.75356C47.474 9.55429 47.2826 9.35713 47.0876 9.16218C46.2318 8.30636 45.3337 7.5187 44.3999 6.79919C47.5342 17.3658 44.9308 29.272 36.5896 37.6132C28.2668 45.936 16.3947 48.5463 5.84549 45.4441C6.55432 46.3596 7.32884 47.2406 8.16905 48.0808C8.39136 48.3031 8.61652 48.5208 8.84443 48.7339C19.6306 53.2738 32.556 51.1509 41.3417 42.3652C50.1584 33.5485 52.2652 20.5627 47.6619 9.75356Z" fill="#0A98FF"/>
<path d="M49.4242 11.8156C52.912 22.4309 50.4354 34.5774 41.9947 43.0182C33.586 51.4268 21.4999 53.9165 10.9135 50.4873C21.7033 58.7569 37.2137 57.9547 47.0876 48.0808C56.9894 38.179 57.7682 22.609 49.4242 11.8156Z" fill="#0A98FF"/>
<path d="M39.775 3.91925C40.48 4.26601 41.1733 4.64478 41.8526 5.05556C45.9222 15.5203 43.7326 27.8582 35.2836 36.3072C26.8519 44.7389 14.5469 46.9369 4.09588 42.901C3.67998 42.2168 3.29662 41.5184 2.9458 40.808C12.8368 42.676 23.4498 39.7826 31.1044 32.128C38.772 24.4604 41.6622 13.8245 39.775 3.91925Z" fill="#0A98FF"/>
<path d="M36.6437 2.61386C35.9937 2.38906 35.3369 2.18933 34.6749 2.01466C35.1543 10.7731 32.0486 19.6911 25.3581 26.3816C18.6774 33.0623 9.776 36.1686 1.03014 35.7006C1.20653 36.3659 1.40826 37.0258 1.63531 37.6789C11.1572 40.1279 21.6898 37.6246 29.1455 30.169C36.6128 22.7016 39.1123 12.1476 36.6437 2.61386Z" fill="#0A98FF"/>
<path d="M29.0742 1.13965C29.6912 1.17191 30.3072 1.22483 30.9213 1.29841C31.6231 9.33662 28.898 17.6177 22.7461 23.7696C16.6029 29.9128 8.33672 32.6388 0.309308 31.9478C0.234717 31.3317 0.180929 30.7136 0.147949 30.0945C7.30291 29.3579 14.2598 26.2484 19.7423 20.7659C25.2329 15.2752 28.3436 8.30582 29.0742 1.13965Z" fill="#0A98FF"/>
<path d="M24.4105 1.28952C23.5477 1.39052 22.6887 1.5323 21.8368 1.71484C20.286 6.50842 17.6071 11.0165 13.8 14.8236C9.99973 18.6239 5.50098 21.3 0.716982 22.852C0.534818 23.7056 0.393573 24.5662 0.293245 25.4306C6.21019 24.6874 11.934 22.0442 16.4773 17.5009C21.0276 12.9506 23.672 7.21616 24.4105 1.28952Z" fill="#0A98FF"/>
<path d="M8.16905 9.16218C10.1654 7.16586 12.3921 5.54037 14.7636 4.28571C13.5118 6.66728 11.8846 8.90305 9.88205 10.9056C7.88507 12.9026 5.65616 14.5263 3.28202 15.7767C4.53812 13.3977 6.16713 11.1641 8.16905 9.16218Z" fill="#0A98FF"/>
</svg>
