<svg width="28" height="25" viewBox="0 0 28 25" fill="none" xmlns="http://www.w3.org/2000/svg">
    <path d="M27.5398 2.54875L17.5279 2.54874C17.5669 2.74109 17.591 2.96006 17.591 3.21218C17.591 4.04969 17.3254 4.52135 17.1283 4.86637L17.1199 4.881C16.9911 5.10624 16.9277 5.21708 16.9277 5.53353C16.9277 5.67601 16.9406 5.77682 16.9665 5.86518H27.5399V7.85499H17.591C17.591 7.85506 17.591 7.85493 17.591 7.85499C17.591 8.69248 17.3254 9.16438 17.1283 9.50944L17.1199 9.52404C16.9911 9.74944 16.9277 9.86025 16.9277 10.1765C16.9277 10.4928 16.9911 10.6036 17.1199 10.829L17.1283 10.8436C17.3254 11.1887 17.591 11.6604 17.591 12.4979C17.591 13.3354 17.3254 13.8071 17.1283 14.1521L17.1199 14.1667C16.9911 14.392 16.9277 14.5028 16.9277 14.8192H14.9379C14.9379 13.9816 15.2034 13.5099 15.4006 13.1648L15.409 13.1502C15.5379 12.9249 15.6012 12.8141 15.6012 12.4979C15.6012 12.1816 15.5378 12.0708 15.4089 11.8454L15.4006 11.8308C15.2034 11.4857 14.9379 11.014 14.9379 10.1765C14.9379 9.33906 15.2034 8.86734 15.4006 8.52228L15.4089 8.50768C15.5378 8.28229 15.6012 8.17147 15.6012 7.85519C15.6012 7.53891 15.5378 7.42809 15.4089 7.20263L15.4006 7.188C15.2034 6.84285 14.9379 6.3711 14.9379 5.53353C14.9379 4.69593 15.2034 4.22423 15.4006 3.87911L15.409 3.86444C15.5379 3.63913 15.6012 3.5284 15.6012 3.21218C15.6012 2.8959 15.5378 2.78508 15.4089 2.55962L15.4027 2.54874L13.8793 2.54874C13.9183 2.74109 13.9424 2.96006 13.9424 3.21218C13.9424 4.04969 13.6768 4.52135 13.4797 4.86637L13.4713 4.881C13.3425 5.10624 13.2791 5.21708 13.2791 5.53353C13.2791 5.85004 13.3425 5.96096 13.4714 6.18636L13.4797 6.20094C13.6769 6.54599 13.9424 7.0177 13.9424 7.85519C13.9424 8.69267 13.6769 9.16438 13.4797 9.50944L13.4714 9.52404C13.3425 9.74944 13.2791 9.86025 13.2791 10.1765C13.2791 10.4928 13.3425 10.6036 13.4714 10.829L13.4797 10.8436C13.6769 11.1887 13.9424 11.6604 13.9424 12.4979C13.9424 13.3354 13.6768 13.8071 13.4797 14.1521L13.4713 14.1667C13.3425 14.392 13.2791 14.5028 13.2791 14.8192H11.2893C11.2893 13.9816 11.5548 13.5099 11.7521 13.1648L11.7604 13.1502C11.8893 12.9249 11.9526 12.8141 11.9526 12.4979C11.9526 12.1816 11.8892 12.0708 11.7604 11.8454L11.752 11.8308C11.5549 11.4857 11.2893 11.014 11.2893 10.1765C11.2893 9.33906 11.5549 8.86734 11.752 8.52228L11.7604 8.50768C11.8892 8.28229 11.9526 8.17147 11.9526 7.85519C11.9526 7.53891 11.8892 7.42809 11.7604 7.20263L11.752 7.188C11.5548 6.84285 11.2893 6.3711 11.2893 5.53353C11.2893 4.69593 11.5548 4.22423 11.7521 3.87911L11.7604 3.86444C11.8893 3.63913 11.9526 3.5284 11.9526 3.21218C11.9526 2.8959 11.8892 2.78508 11.7604 2.55962L11.7541 2.54874H10.2316C10.2706 2.74109 10.2947 2.96006 10.2947 3.21218C10.2947 4.04969 10.0291 4.52135 9.83195 4.86637L9.82359 4.881C9.69479 5.10624 9.63141 5.21708 9.63141 5.53353C9.63141 5.85004 9.69482 5.96096 9.82367 6.18635L9.83201 6.20094C10.0291 6.54599 10.2947 7.01771 10.2947 7.85519C10.2947 8.69267 10.0291 9.16438 9.83198 9.50944L9.82363 9.52404C9.69477 9.74944 9.63141 9.86025 9.63141 10.1765C9.63141 10.4928 9.69477 10.6036 9.82363 10.829L9.83198 10.8436C10.0291 11.1887 10.2947 11.6604 10.2947 12.4979C10.2947 13.3354 10.0291 13.8071 9.83195 14.1521L9.82358 14.1667C9.69479 14.392 9.63141 14.5028 9.63141 14.8192H7.64159C7.64159 13.9816 7.90711 13.5099 8.10432 13.1648L8.11271 13.1502C8.24154 12.9249 8.30486 12.8141 8.30486 12.4979C8.30486 12.1816 8.24151 12.0708 8.11264 11.8454L8.1043 11.8308C7.90714 11.4857 7.64159 11.014 7.64159 10.1765C7.64159 9.33906 7.90714 8.86734 8.1043 8.52228L8.11264 8.50768C8.24151 8.28229 8.30486 8.17147 8.30486 7.85519C8.30486 7.53891 8.24151 7.42808 8.11263 7.20263L8.10427 7.188C7.90708 6.84285 7.64159 6.3711 7.64159 5.53353C7.64159 4.69593 7.90711 4.22423 8.10432 3.87911L8.11271 3.86444C8.24154 3.63913 8.30486 3.5284 8.30486 3.21218C8.30486 2.8959 8.24151 2.78508 8.11263 2.55962L8.10427 2.54499C7.90708 2.19984 7.64159 1.72809 7.64159 0.890521L8.30497 0.890521V0.558927L27.5398 0.558929V2.54875Z"
          fill="#0A98FF"/>
    <path d="M12.6161 22.1152C7.12141 22.1152 2.66706 17.6609 2.66706 12.1661H0.677246C0.677246 18.7598 6.02247 24.105 12.6161 24.105C19.2098 24.105 24.555 18.7598 24.555 12.1661H22.5652C22.5652 17.6609 18.1108 22.1152 12.6161 22.1152Z"
          fill="#0A98FF"/>
    <path d="M7.6419 0.558594H8.96844V0.890554L7.64159 0.890521L7.6419 0.558594Z" fill="#0A98FF"/>
</svg>
