<svg width="22" height="22" viewBox="0 0 22 22" fill="none" xmlns="http://www.w3.org/2000/svg">
    <g clip-path="url(#clip0_68_4593)">
        <path fill-rule="evenodd" clip-rule="evenodd"
              d="M2.71757 2.66043C2.77413 2.74114 4.08409 4.64781 5.62858 6.89747C7.17308 9.14712 8.60159 11.2276 8.80308 11.5207C9.00454 11.8139 9.16938 12.0596 9.16938 12.0668C9.16938 12.074 9.09436 12.1665 9.00267 12.2723C8.91098 12.3782 8.6527 12.6778 8.42876 12.9382C8.2048 13.1986 7.82726 13.6374 7.58978 13.9134C7.35231 14.1894 6.93454 14.6752 6.66138 14.9928C6.38824 15.3105 5.89705 15.8816 5.56984 16.2619C4.55786 17.4384 4.41182 17.6083 3.64146 18.5055C3.23013 18.9846 2.83568 19.4427 2.76493 19.5235C2.69418 19.6043 2.6363 19.6788 2.6363 19.6892C2.6363 19.7013 2.89467 19.708 3.36423 19.708H4.09215L4.89243 18.7754C5.33259 18.2624 5.76678 17.7575 5.8573 17.6534C6.05304 17.4282 7.54581 15.6913 7.67128 15.5427C7.71932 15.4859 7.7891 15.4049 7.82635 15.3628C7.86362 15.3208 8.15731 14.9796 8.479 14.6046C8.80067 14.2297 9.07271 13.9137 9.08349 13.9025C9.09428 13.8913 9.26458 13.6932 9.46193 13.4622C9.65929 13.2313 9.82686 13.0424 9.8343 13.0424C9.84176 13.0424 10.8555 14.5102 12.0872 16.3042C13.3188 18.0982 14.3485 19.5978 14.3754 19.6366L14.4243 19.7072L16.9212 19.7076C18.9745 19.7079 19.4164 19.7036 19.4085 19.6831C19.4002 19.6614 18.2039 17.9165 15.1349 13.4495C12.9255 10.2338 12.6317 9.80165 12.6401 9.77972C12.6483 9.75839 12.9492 9.40642 14.9277 7.1042C15.2671 6.7093 15.7349 6.16463 15.9673 5.89384C16.1997 5.62304 16.4344 5.35036 16.4888 5.28787C16.5431 5.22538 16.8291 4.89304 17.1243 4.54934C17.4194 4.20565 17.9211 3.62165 18.2392 3.25157C18.5573 2.88149 18.8292 2.56408 18.8435 2.54619C18.868 2.51557 18.8264 2.51367 18.1301 2.51367H17.3907L17.0619 2.89714C16.6242 3.40747 15.833 4.32777 15.6084 4.58782C15.5091 4.70273 15.3853 4.84714 15.3332 4.90872C15.2811 4.9703 15.1784 5.08932 15.1049 5.17321C15.0314 5.2571 14.661 5.6879 14.2818 6.13054C13.9026 6.57318 13.5872 6.9396 13.5808 6.94481C13.5745 6.95002 13.4932 7.04426 13.4003 7.15427C13.2377 7.34666 13.0722 7.53925 12.3134 8.4193C11.9803 8.8056 11.9632 8.82219 11.9351 8.78669C11.9189 8.76624 10.9428 7.34651 9.76588 5.63177L7.62606 2.51407L5.1204 2.51386L2.61475 2.51367L2.71757 2.66043ZM4.6732 3.68285C4.69202 3.71158 5.16017 4.3827 5.71355 5.17425C6.76307 6.67546 10.8872 12.5782 13.5396 16.3752C14.3871 17.5885 15.0909 18.592 15.1036 18.6051C15.1216 18.6238 15.3684 18.6279 16.2567 18.624L17.3868 18.6192L14.4295 14.3869C12.8029 12.0591 10.448 8.68886 9.19624 6.89747L6.92034 3.64039L5.77968 3.63551L4.63902 3.63062L4.6732 3.68285Z"
              fill="#FAFAFA"/>
    </g>
    <defs>
        <clipPath id="clip0_68_4593">
            <rect width="22" height="22" fill="white"/>
        </clipPath>
    </defs>
</svg>
